<svg xmlns="http://www.w3.org/2000/svg" viewBox="340 379 603 66"><path fill="hsl(167, 52%, 78%)" d="m348.45 429.038 12.91-3.857q12.91-3.857 35.032-6.924t37.273-5.049 25.135-4.012 12.232-3.412 2.678-1.424.856.02.826.225.748.416q.35.253.627.583.279.33.47.716t.284.807.083.853q-.01.43-.123.847-.114.416-.323.793t-.503.693-.655.552-.767.38-10.057 6.825-14.666 10.522-5.593 4.083-1.198.342-1.244.046-1.22-.253q-.594-.201-1.123-.538t-.962-.791-.744-.999-.484-1.147-.196-1.23.105-1.241.399-1.18.669-1.05.901-.86 17.453-8.71q16.95-8.334 27.635-14.21t16.164-11.068 5.912-5.528.934-.56 1.04-.32q.54-.096 1.088-.06.548.035 1.07.2.523.166.992.452t.854.675.668.86.442.995.192 1.072-.07 1.087-.329 1.038-.567.93-10.577 9.012 1.82 9.134 21.208-4.468 10.385 4.66-5.063 16.226q-6.3 6.546-6.962 7.066-.663.52-1.43.867-.768.347-1.597.5-.828.153-1.67.103-.84-.05-1.645-.299-.805-.25-1.526-.684-.722-.435-1.318-1.03t-1.034-1.315q-.436-.72-.688-1.525t-.304-1.645.099-1.67q.15-.828.495-1.597t.864-1.433 17.892-3.591q17.372-2.927 27.309-5.706 9.936-2.778 19.405-6.33 9.468-3.552 10.034-3.668.566-.115 1.143-.091.577.023 1.132.184t1.054.45.916.69.725.888.491 1.036.229 1.123-.047 1.146-.32 1.101-.573.993q-.348.461-.795.826t-.97.612q-.521.248-10.1 1.91-9.578 1.663-22.304 4.544-12.725 2.882-15.087 5.447-2.36 2.565-2.896 2.637-.535.073-1.072.015-.536-.058-1.044-.243-.507-.184-.955-.485-.449-.3-.812-.7t-.621-.874-.393-.997q-.137-.522-.144-1.062t.115-1.066.367-1.007.597-.89.792-.722q.44-.312.943-.51.502-.199 10.791-.861 10.29-.663 23.577-2.68 13.288-2.015 24.424-4.103t17.532-4.6 6.813-2.62.849-.117.852.09.805.292q.385.195.712.476.328.282.578.633t.41.752q.158.401.217.829t.013.856q-.046.43-.193.835-.147.406-.386.764-.24.36-.559.65-.318.291-.697.497-.38.206-8.902 5.864-8.523 5.657-13.9 10.617t-5.822 5.204-.934.372-.996.138-1-.104q-.495-.113-.947-.34-.453-.229-.837-.558-.385-.33-.68-.742t-.482-.882-.257-.973q-.07-.501-.017-1.005.052-.504.224-.98.172-.477.453-.899.28-.422.654-.764.373-.342 9.224-3.137 8.85-2.794 27.644-4.356t34.213-5.248q15.42-3.687 25.403-6.889 9.984-3.202 12.21-5.16t2.618-2.037.788-.062.78.128.727.31.632.477q.286.276.499.613.212.337.338.715.125.378.157.775.031.397-.033.79-.065.393-.221.759-.157.366-.397.684t-.549.57q-.308.25-.669.421-.36.17-11.766 5.217t-17.61 8.892-6.733 3.953-1.071.087-1.061-.172-.99-.42-.86-.646-.68-.832-.461-.97-.216-1.054.043-1.074.298-1.033.537-.931.744-.776.909-.575 13.608-4.826 18.946-8.647 6.313-4.298 1.017-.365 1.075-.111 1.07.149 1.004.401.879.63.702.822.485.966.24 1.054-.02 1.08-.277 1.045-.52.948-.73.796-6.228 9.075q-5.814 8.72-5.827 9.539t-.41 1.28q-.395.46-.89.814-.496.354-1.06.578-.566.225-1.169.308-.602.083-1.207.019t-1.177-.27-1.079-.545-.916-.786q-.41-.45-.702-.983-.29-.534-.446-1.123-.155-.588-.164-1.196t.127-1.201.41-1.136 12.005-2.547 21.553-4.348 23.22-6.775 15.62-4.752 2.734-.264 1 .234.916.466.778.672.594.838.376.956.137 1.019-.112 1.022-.352.965-.573.853-.761.69-.904.49-.995.257q-.513.07-3.809 6.697t-3.731 7.133-.98.89q-.543.387-1.163.632t-1.281.334-1.324.018-1.29-.3q-.626-.227-1.18-.599-.554-.371-1.003-.864t-.767-1.08-.486-1.231-.177-1.312.142-1.316.452-1.245 10.995-4.938 22.11-8.538q11.418-4.195 20.476-7.336t12.901-5.094 4.3-2.063.926-.109.925.116.87.333.766.532.616.7.43.827.22.906-.003.933-.227.904-.436.824-.62.695-.77.527-16.858 6.628q-16.443 6.41-20.929 10.999-4.486 4.588-4.935 4.884-.45.296-.957.475-.507.18-1.043.233t-1.068-.023-1.031-.278-.935-.517-.784-.726-.587-.892-.357-1.007-.106-1.063.152-1.057.4-.99.626-.866 16.951-2.797 27.676-4.913 19.484-5.305 8.795-2.858.808-.03.791.165.729.35q.343.218.623.513.281.295.483.648t.314.745.126.798-.068.805-.259.766-.435.68-.585.558-.701.401-6.667 7.923 2.304 3.3 9.419-4.37 1.598.385 1.46.756q.684.466 1.236 1.083.553.617.942 1.348.389.73.591 1.534.203.802.207 1.63.005.828-.189 1.633-.193.805-.574 1.54-.38.736-.926 1.359t-1.225 1.097-1.451.772-1.594.402 1.602 1.194 2.035 1.905-.96 1.514-1.295 1.24-1.554.895-1.723.497q-.891.144-1.791.07t-1.756-.361q-.857-.287-1.62-.77-.762-.484-1.387-1.136-.624-.653-1.075-1.435-.45-.783-.7-1.65-.25-.868-.286-1.77-.035-.903.147-1.788.182-.884 7.698-6.238t7.793-7.37 1.083-2.645 1.739-1.051 1.94-.605 2.028-.122 2 .366 1.852.834 1.6 1.254 1.253 1.6q.529.875.833 1.853.305.977.366 1.998.062 1.022-.123 2.029-.184 1.007-.604 1.94t-1.052 1.739-3.747 5.881q-3.115 5.077-3.828 5.91-.714.832-1.606 1.47t-1.91 1.044-2.105.557q-1.087.15-2.177.036t-2.123-.485-1.944-.98-1.654-1.416-1.267-1.771-.806-2.023-.298-2.157.226-2.165q.245-1.07.738-2.049.494-.98 12.964-2.086 12.47-1.107 15.42-3.223 2.952-2.117 3.846-2.428t1.836-.4 1.879.052 1.812.5q.875.36 1.639.919t1.372 1.284 1.025 1.576.617 1.775.175 1.871-.278 1.859-.714 1.738-1.11 1.517-1.44 1.207-.017-.768q.776-1.284.651-.289t-.485 1.932-.933 1.76q-.574.824-1.328 1.486-.753.662-1.644 1.125t-1.866.698-1.978.232-1.977-.249-1.86-.714q-.886-.47-1.634-1.14-.749-.668-1.315-1.496t-.918-1.768-.468-1.937q-.117-.996 9.054-4.598t23.045-2.543q13.874 1.058 20.613-.512 6.74-1.57 7.88-1.382 1.142.187 2.164.728 1.022.542 1.817 1.382t1.281 1.89.61 2.198q.126 1.15-.123 2.28t-.845 2.12-1.478 1.74q-.881.748-1.956 1.176t-2.23.49-2.268-.246q-1.115-.31-2.072-.959t-1.657-1.57-1.069-2.017-.369-2.252.37-2.253 1.07-2.016 1.657-1.57q.957-.648 2.072-.958 1.114-.309 2.269-.246t2.229.491 1.956 1.177q.88.75 1.477 1.74.596.992.844 2.121.249 1.13.123 2.28-.125 1.15-.61 2.199-.487 1.05-1.282 1.889-.796.839-1.818 1.38-1.022.542-2.163.729l-1.14.186-3.07.768q-3.07.767-13.436.944-10.367.177-18.39-3.767t-8.149-2.949-.484 1.933-.934 1.76-1.327 1.485q-.754.663-1.644 1.125-.89.463-1.866.699-.975.236-1.979.232-1.003-.005-1.976-.249t-1.86-.714-1.635-1.139-1.314-1.497-.919-1.767-.468-1.937q-.117-.996 3.973-6.728t4.985-6.043 1.836-.4 1.879.052 1.812.5 1.64.918 1.371 1.285 1.025 1.575.618 1.775.175 1.871-.277 1.86-.715 1.737-1.11 1.517-1.44 1.207-1.986.964q-1.192.448-11.304 1.214-10.113.767-10.827 1.6-.713.833-1.605 1.47-.892.639-1.91 1.045-1.02.406-2.105.557-1.087.15-2.178.036t-2.122-.485-1.945-.98-1.654-1.416-1.266-1.77-.806-2.023-.3-2.157q-.018-1.096.227-2.165.245-1.07.738-2.049.493-.98 5.178-7.018t5.49-6.67 1.739-1.051 1.94-.605q1.007-.184 2.028-.122 1.022.061 2 .366.976.304 1.852.834t1.6 1.253q.724.724 1.253 1.6.53.876.834 1.853.305.977.366 1.999.062 1.021-.122 2.028-.185 1.007-.605 1.94t-1.051 1.739-7.325 4.551-7.082 4.561-.96 1.515-1.294 1.24-1.554.895-1.723.497-1.791.07-1.757-.36q-.856-.288-1.619-.771-.762-.484-1.387-1.136t-1.076-1.435-.7-1.65-.286-1.77.147-1.787q.181-.884 4.823-6.462 4.641-5.578 5.464-5.483.822.096 1.598.385t1.46.755 1.237 1.083.941 1.348q.39.731.592 1.534.203.803.207 1.63.005.829-.188 1.634-.194.805-.575 1.54t-.926 1.358-1.224 1.097-1.452.772-1.594.403-5.45 1.248-12.53-4.53 1.36-14.56q9.261-8.886 9.663-8.95.402-.063.808-.029.405.035.79.165.386.13.73.35.342.218.623.513t.483.648.314.745.126.798q.015.406-.068.805-.083.398-.259.765t-.435.682-.585.557-.701.401-8.88 2.974q-8.503 2.816-19.718 5.867t-25.605 5.05q-14.39 1.997-14.84 2.293-.448.296-.956.476-.507.18-1.042.233-.536.054-1.068-.023-.533-.076-1.032-.278-.498-.201-.935-.517-.436-.315-.784-.725t-.587-.892-.357-1.007-.106-1.063.152-1.058.4-.99.626-.866 6.098-4.807 22.447-11.241 17.17-6.94.926-.109.925.116q.455.113.87.333t.766.532q.35.313.615.7.266.387.43.827.166.44.22.906.056.466-.002.932t-.227.905-.436.824-.62.695-.77.527-4.459 1.637-12.853 4.983-19.623 8.275-18.932 8.082-8.555 3.876-.979.892q-.543.386-1.164.63-.62.246-1.28.335-.662.09-1.325.018-.663-.071-1.29-.3-.626-.227-1.18-.598-.554-.372-1.003-.865t-.767-1.08q-.318-.585-.486-1.23-.168-.646-.177-1.313-.01-.666.141-1.316t.453-1.244.355-1.399 7.838-7.84q7.785-7.037 8.3-6.98.514.055 1 .232t.916.467.777.671.595.839.376.956.137 1.019-.112 1.021q-.117.504-.352.965-.235.462-.573.853-.339.392-.76.691-.423.3-.905.489-.481.19-.994.258-.513.07-7.265 1.249t-14.632 4.21-26.275 6.428-18.79 3.857-.892.815-1.06.578-1.168.308q-.603.083-1.208.019t-1.177-.27-1.078-.545-.917-.786-.701-.983q-.292-.534-.447-1.122-.154-.588-.164-1.197-.01-.608.126-1.2.137-.594.41-1.137.275-.543.3-.887t7.526-10.5 7.987-10.401 1.018-.365 1.075-.111 1.07.149 1.004.401.878.63.703.822.485.965q.184.513.24 1.054.056.542-.02 1.081-.075.54-.277 1.045t-.52.948-.73.796q-.414.353-6.979 4.167t-20.02 9.144q-13.454 5.332-13.984 5.44-.53.11-1.072.088-.54-.021-1.06-.172-.521-.15-.99-.42-.47-.27-.86-.645t-.68-.833-.462-.97q-.172-.514-.216-1.054t.043-1.074.298-1.033.537-.931.744-.776.908-.575q.49-.233 6.63-3.094 6.142-2.86 17.993-7.767 11.852-4.906 12.242-4.985t.789-.062.78.128.727.31.631.476q.287.277.5.614.212.336.338.714.125.378.157.775.031.397-.033.79-.065.393-.221.76-.157.366-.397.684t-.548.57q-.31.25-.67.421t-2.724 1.584-12.535 4.907-26 7.57-41.336 8.579q-25.505 4.5-25.95 4.744-.444.243-.934.372-.49.13-.996.138-.507.009-1-.104-.494-.113-.947-.34t-.837-.558-.68-.741-.482-.883-.257-.972-.017-1.006.224-.98.452-.899.654-.764 6.245-4.372 15.025-10.527 9.573-6.606.848-.117.852.09q.42.098.806.292.385.195.712.476t.578.633.41.752.217.829.013.856q-.046.43-.193.835t-.386.764-.558.65q-.32.29-.698.497-.379.206-7.527 2.19-7.149 1.984-18.339 4.354t-24.58 4.792-22.96 3.931-10.104 1.581-1.072.015-1.044-.242q-.508-.185-.956-.486-.449-.3-.812-.7t-.62-.873q-.258-.475-.394-.997-.137-.523-.144-1.063t.115-1.065.366-1.008.597-.89q.353-.409.793-.721.44-.313.942-.511t2.778-2.11 15.077-5.687q12.801-3.777 22.005-5.41 9.204-1.632 9.77-1.748.566-.115 1.143-.091.577.023 1.131.184.555.16 1.055.45.5.289.916.689t.725.888.491 1.036.229 1.124-.047 1.145-.32 1.102q-.226.53-.573.992t-.795.827-.969.612-10.122 3.42-19.77 7.07-23.743 6.476-14.237 3.099-1.43.867-1.596.5-1.67.104-1.645-.3q-.805-.249-1.527-.684t-1.318-1.03-1.033-1.315-.689-1.524-.304-1.645q-.052-.84.099-1.67.15-.829.495-1.597.345-.77.864-1.433.518-.664 2.925-1.676 2.408-1.011 8.947-6.38 6.54-5.37-.76-1.109t-17.697 6.433q-10.399 2.173-21.07-1.021-10.673-3.195-5.138-10.631 5.534-7.436 15.261-15.494t10.16-8.394.934-.56q.502-.222 1.041-.319.54-.097 1.088-.061.547.035 1.07.2.523.166.991.452.468.285.855.675t.668.86.442.995.192 1.072-.07 1.087-.329 1.038-.567.93q-.34.43-.23.522t-6.962 4.933-17.55 11.214-26.77 15.754q-16.29 9.381-16.869 9.625-.578.244-1.197.342t-1.245.046-1.22-.253q-.593-.2-1.122-.538-.53-.337-.962-.79-.433-.455-.745-1-.312-.543-.484-1.147-.173-.603-.196-1.23-.023-.626.105-1.24.127-.615.398-1.18.271-.566.67-1.05.398-.485.9-.86.504-.375 1.718-1.325t8.96-5.361 15.264-8.55q7.52-4.138 7.948-4.18.43-.041.856.021.427.062.827.225.4.162.748.416.349.253.627.582.278.33.47.716.191.387.284.808t.083.852-.123.847-.323.794-.503.692-.654.553q-.361.236-.768.38-.407.143-2.749 1.008t-12.504 3.293-25.213 4.923-36.238 6.133-33.691 8.62-13.2 5.134-1.409.131-1.399-.209-1.308-.538-1.142-.836-.908-1.085-.622-1.27-.3-1.383q-.067-.71.039-1.414.105-.704.376-1.363.271-.66.692-1.234.421-.575.968-1.033t1.186-.77z"/></svg>