<svg xmlns="http://www.w3.org/2000/svg" viewBox="0 0 511.56 216.8"><defs><style>.cls-1{fill:#04cbd0;}.cls-2{fill:#061225;}.cls-3{fill:#0fbdcb;}</style></defs><g id="Ebene_2" data-name="Ebene 2"><g id="Ebene_1-2" data-name="Ebene 1"><path class="cls-1" d="M156.39,28C156.23,12,143.72.11,127.64,0,111.19,0,94.74,0,78.29,0S45.39,0,29,0C12.86.11.35,12,.19,28-.15,60.65.06,93.3.13,126c0,15.34,14.51,28.79,29.17,28.35,16.32-.49,32.66-.12,49-.12s32.68-.37,49,.12c14.67.44,29.15-13,29.18-28.35C156.52,93.3,156.73,60.65,156.39,28Zm-9.77,97.74c-.06,10.1-6.31,17-16.28,18.77a56.15,56.15,0,0,1-9.89.45q-21.08,0-42.16,0l-42.16,0a56.15,56.15,0,0,1-9.89-.45c-10-1.79-16.22-8.67-16.27-18.77q-.27-49,.06-97.91c.07-10.61,7.87-18.07,19-18,16.41.09,32.82,0,49.22,0v0h.14v0c16.4,0,32.81.07,49.22,0,11.11-.06,18.9,7.4,19,18Q146.88,76.78,146.62,125.74Z"/><path class="cls-1" d="M120.48,61.56,86.3,27.3H45.08a10,10,0,0,0-6.22,2.38,9.89,9.89,0,0,0-2.76,4V86h9V36.28H78.89V64.71a8.21,8.21,0,0,0,1.8,2.72,8,8,0,0,0,2.7,1.77h28.09V86h9V69.2Zm-32.6-1.34V41l19.17,19.18Z"/><path class="cls-2" d="M45.62,118.53h8.84a13.4,13.4,0,0,1-2.07,6.77,12.75,12.75,0,0,1-5.24,4.56,17.92,17.92,0,0,1-7.89,1.63,16.67,16.67,0,0,1-6.58-1.24,13.22,13.22,0,0,1-4.9-3.56,15.66,15.66,0,0,1-3.05-5.63,24.6,24.6,0,0,1-1.05-7.45v-2a23.44,23.44,0,0,1,1.1-7.46,16.16,16.16,0,0,1,3.13-5.66,13.39,13.39,0,0,1,4.88-3.57,15.73,15.73,0,0,1,6.34-1.24,17.4,17.4,0,0,1,8.11,1.72,12.65,12.65,0,0,1,5.13,4.71,15.47,15.47,0,0,1,2.14,6.8H45.67a8.76,8.76,0,0,0-.7-3.47,4.42,4.42,0,0,0-2.07-2.11,8.54,8.54,0,0,0-3.77-.7,6.37,6.37,0,0,0-2.85.6,5.08,5.08,0,0,0-2,1.92,10,10,0,0,0-1.2,3.4,27.69,27.69,0,0,0-.39,5v2a30.94,30.94,0,0,0,.35,5A9.92,9.92,0,0,0,34.16,122a4.82,4.82,0,0,0,2,1.93,6.78,6.78,0,0,0,3.07.62,8.08,8.08,0,0,0,3.41-.64,4.77,4.77,0,0,0,2.15-2A7.2,7.2,0,0,0,45.62,118.53Z"/><path class="cls-2" d="M58.66,94.21h7.47l1.39,28.19V131H58.66Zm4.39,0h7.22l8.21,25.58,8.21-25.58h7.22L81.41,131H75.55Zm27.78,0h7.5V131H89.44V122.4Z"/><path class="cls-2" d="M118.66,118.51h-9.14v-6.85h9.14a6.32,6.32,0,0,0,3-.63,3.93,3.93,0,0,0,1.71-1.76,5.73,5.73,0,0,0,.54-2.53,7.22,7.22,0,0,0-.54-2.81,4.75,4.75,0,0,0-1.71-2.08,5.24,5.24,0,0,0-3-.8h-5.81V131H104V94.21h14.67a16.67,16.67,0,0,1,7.62,1.62,12,12,0,0,1,4.91,4.43,12.15,12.15,0,0,1,1.71,6.43,11.21,11.21,0,0,1-1.71,6.21,11.46,11.46,0,0,1-4.91,4.13A18.11,18.11,0,0,1,118.66,118.51Z"/><path class="cls-3" d="M212.88,44.66h15.88A24,24,0,0,1,225,56.82a22.92,22.92,0,0,1-9.42,8.2,32.11,32.11,0,0,1-14.18,2.92,29.89,29.89,0,0,1-11.83-2.22,24,24,0,0,1-8.8-6.4,28.19,28.19,0,0,1-5.49-10.12,44.11,44.11,0,0,1-1.89-13.39V32.22a42.47,42.47,0,0,1,2-13.41A29.16,29.16,0,0,1,181,8.65a24.35,24.35,0,0,1,8.78-6.43A28.4,28.4,0,0,1,201.21,0a31.3,31.3,0,0,1,14.57,3.09A22.73,22.73,0,0,1,225,11.55a27.75,27.75,0,0,1,3.86,12.23H213a15.7,15.7,0,0,0-1.27-6.24A7.89,7.89,0,0,0,208,13.75a15.28,15.28,0,0,0-6.76-1.27,11.28,11.28,0,0,0-5.13,1.09A9.06,9.06,0,0,0,192.45,17a17.76,17.76,0,0,0-2.15,6.1,49.48,49.48,0,0,0-.71,9v3.68a53.66,53.66,0,0,0,.64,9,17.55,17.55,0,0,0,2,6.08,8.8,8.8,0,0,0,3.65,3.47,12.4,12.4,0,0,0,5.52,1.11,14.58,14.58,0,0,0,6.13-1.15,8.47,8.47,0,0,0,3.85-3.54A13,13,0,0,0,212.88,44.66Z"/><path class="cls-3" d="M233.66,43V42a30.86,30.86,0,0,1,1.55-10,22.53,22.53,0,0,1,4.53-7.92,20.76,20.76,0,0,1,7.4-5.25,28.61,28.61,0,0,1,20.4,0A20.58,20.58,0,0,1,275,24.15a22.55,22.55,0,0,1,4.54,7.92,30.86,30.86,0,0,1,1.55,10V43a30.75,30.75,0,0,1-1.55,9.92A22.82,22.82,0,0,1,275,60.84a20.26,20.26,0,0,1-7.39,5.24,26,26,0,0,1-10.17,1.86,26.26,26.26,0,0,1-10.21-1.86,20.23,20.23,0,0,1-7.45-5.24,22.8,22.8,0,0,1-4.53-7.94A30.75,30.75,0,0,1,233.66,43ZM249,42V43a30,30,0,0,0,.41,5.17,13.55,13.55,0,0,0,1.36,4.2,7,7,0,0,0,2.58,2.79,7.7,7.7,0,0,0,4.09,1,7.49,7.49,0,0,0,4-1A7.13,7.13,0,0,0,264,52.35a13.55,13.55,0,0,0,1.36-4.2,31.05,31.05,0,0,0,.41-5.17V42a30.06,30.06,0,0,0-.41-5.06A14.14,14.14,0,0,0,264,32.75a7.41,7.41,0,0,0-2.59-2.89,7.49,7.49,0,0,0-4.08-1,7.3,7.3,0,0,0-4,1,7.42,7.42,0,0,0-2.56,2.89A14.14,14.14,0,0,0,249.37,37,29.05,29.05,0,0,0,249,42Z"/><path class="cls-3" d="M303.24,27.37V85.92h-15.3v-68H302.2Zm30.14,14.52v1a38.17,38.17,0,0,1-1.23,9.94,24.92,24.92,0,0,1-3.63,8,16.89,16.89,0,0,1-6,5.29,17.42,17.42,0,0,1-8.24,1.88,14.23,14.23,0,0,1-7.58-2,16.33,16.33,0,0,1-5.31-5.4,32.57,32.57,0,0,1-3.45-7.9,72.6,72.6,0,0,1-2.08-9.39V42.07A74.49,74.49,0,0,1,298,32.2a31.39,31.39,0,0,1,3.45-8,16.08,16.08,0,0,1,5.29-5.31A14.34,14.34,0,0,1,314.27,17a18.33,18.33,0,0,1,8.24,1.77,16.56,16.56,0,0,1,6,5.06,23.24,23.24,0,0,1,3.65,7.87A39.26,39.26,0,0,1,333.38,41.89Zm-15.3,1v-1a31.39,31.39,0,0,0-.41-5.24,14.78,14.78,0,0,0-1.29-4.15A6.85,6.85,0,0,0,314,29.77a6.43,6.43,0,0,0-3.58-.95,9.93,9.93,0,0,0-4.11.75,5.93,5.93,0,0,0-2.63,2.27,9.94,9.94,0,0,0-1.37,3.77,29.33,29.33,0,0,0-.34,5.24v3.72a19.76,19.76,0,0,0,.68,6.06,7.7,7.7,0,0,0,2.68,4.06,8.34,8.34,0,0,0,5.18,1.45,6.17,6.17,0,0,0,3.63-1,7.05,7.05,0,0,0,2.31-2.86A15.41,15.41,0,0,0,317.72,48,35,35,0,0,0,318.08,42.84Z"/><path class="cls-3" d="M351.48,17.93l9.67,34.35,1.68,16.21H352.57L335.1,17.93Zm3.23,43.34,12.71-43.34h16.42L364.1,74.34a34.86,34.86,0,0,1-1.68,4,16.76,16.76,0,0,1-2.86,4.11,13.53,13.53,0,0,1-4.65,3.17,17.64,17.64,0,0,1-7,1.23,17.91,17.91,0,0,1-3.25-.21c-.68-.13-1.71-.37-3.1-.7V75h2a12.4,12.4,0,0,0,3.93-.5,4.88,4.88,0,0,0,2.27-1.45A7.19,7.19,0,0,0,351,70.76Z"/><path class="cls-3" d="M175.32,87.27h13.44l2.49,50.65v15.43H175.32Zm7.9,0h13l14.75,46,14.75-46h13l-22.46,66.08H205.69Zm49.92,0h13.48v66.08h-16V137.92Z"/><path class="cls-3" d="M267.88,105.55l9.67,34.36,1.68,16.2H269L251.5,105.55Zm3.23,43.34,12.7-43.34h16.43L280.5,162a34.86,34.86,0,0,1-1.68,4,16.57,16.57,0,0,1-2.86,4.11,13.69,13.69,0,0,1-4.65,3.18,17.83,17.83,0,0,1-7,1.22,19.05,19.05,0,0,1-3.25-.2c-.68-.14-1.71-.37-3.11-.71V162.65h2a12.74,12.74,0,0,0,3.93-.5,5,5,0,0,0,2.27-1.46,6.89,6.89,0,0,0,1.24-2.31Z"/><path class="cls-3" d="M331.29,132.24H314.86v-12.3h16.43a11.3,11.3,0,0,0,5.44-1.14,7,7,0,0,0,3.07-3.15,10.38,10.38,0,0,0,1-4.56,12.83,12.83,0,0,0-1-5,8.44,8.44,0,0,0-3.07-3.75,9.45,9.45,0,0,0-5.44-1.43H320.85v53.79H304.92V88.58h26.37A30,30,0,0,1,345,91.48a21.33,21.33,0,0,1,8.83,8A21.7,21.7,0,0,1,356.89,111a20.07,20.07,0,0,1-3.09,11.16,20.39,20.39,0,0,1-8.83,7.42A32.38,32.38,0,0,1,331.29,132.24Z"/><path class="cls-3" d="M391.61,124.66l.09,8.17h-6.77a9.55,9.55,0,0,0-3.6.59A5.93,5.93,0,0,0,379,135a6.09,6.09,0,0,0-1.27,2.29,9.1,9.1,0,0,0-.39,2.68,4.48,4.48,0,0,0,.66,2.42,4.41,4.41,0,0,0,1.79,1.66,5.34,5.34,0,0,0,2.54.59,9,9,0,0,0,4.34-1,7.6,7.6,0,0,0,2.74-2.39,4.71,4.71,0,0,0,1-2.63l3.35,6.26c-.6,1.22-1.29,2.44-2.06,3.68a16.77,16.77,0,0,1-2.86,3.43,13.51,13.51,0,0,1-4.15,2.54,16.16,16.16,0,0,1-5.95,1,18.65,18.65,0,0,1-8.33-1.86,15.47,15.47,0,0,1-6.06-5.19,13.39,13.39,0,0,1-2.27-7.7,16,16,0,0,1,1.39-6.8,13.14,13.14,0,0,1,4.2-5.09,19.94,19.94,0,0,1,7.17-3.17A42.38,42.38,0,0,1,385,124.66Zm-1.86,17.65V122.07a9.89,9.89,0,0,0-.59-3.59,4.91,4.91,0,0,0-1.87-2.33,6.07,6.07,0,0,0-3.4-.84,6.81,6.81,0,0,0-2.95.59,4,4,0,0,0-1.86,1.77,6.31,6.31,0,0,0-.64,3H363.15a13.56,13.56,0,0,1,1.52-6.33,15.17,15.17,0,0,1,4.36-5.1,21.14,21.14,0,0,1,6.8-3.39,30.67,30.67,0,0,1,8.88-1.2,26.61,26.61,0,0,1,10.46,2,16.41,16.41,0,0,1,7.28,5.84,16.69,16.69,0,0,1,2.68,9.73v20.11a35.79,35.79,0,0,0,.55,7.28,16.51,16.51,0,0,0,1.54,4.34v.77H391.88a19.92,19.92,0,0,1-1.61-5.56A43.13,43.13,0,0,1,389.75,142.31Z"/><path class="cls-3" d="M411.85,130.69v-.95a35.42,35.42,0,0,1,1.38-10.19,23.82,23.82,0,0,1,4-7.94,17.88,17.88,0,0,1,6.33-5.15,18.9,18.9,0,0,1,8.39-1.82,16,16,0,0,1,8.29,1.93,14.58,14.58,0,0,1,5.22,5.38,30.76,30.76,0,0,1,3.08,8c.74,3.08,1.37,6.38,1.89,9.92v1.14a69.84,69.84,0,0,1-2.11,9.41,32.28,32.28,0,0,1-3.48,7.83,16.1,16.1,0,0,1-5.33,5.34,14.58,14.58,0,0,1-7.65,1.92,17.9,17.9,0,0,1-14.63-7.08,24.15,24.15,0,0,1-4-7.89A33.94,33.94,0,0,1,411.85,130.69Zm32.63-25.14h13.89v47.2a20.47,20.47,0,0,1-3.13,11.55,19.75,19.75,0,0,1-8.74,7.22A32.18,32.18,0,0,1,433.41,174a28.58,28.58,0,0,1-6.77-.84,26.44,26.44,0,0,1-6.44-2.47,17.57,17.57,0,0,1-5-4l6.4-9a16.26,16.26,0,0,0,4.68,3.56,14,14,0,0,0,6.62,1.48,11.82,11.82,0,0,0,5.56-1.18,8,8,0,0,0,3.43-3.43,11.57,11.57,0,0,0,1.18-5.42V117.17Zm-17.34,24.19v.95a23.56,23.56,0,0,0,.53,5.13,13.16,13.16,0,0,0,1.61,4.15,8.16,8.16,0,0,0,2.7,2.8,7.07,7.07,0,0,0,3.79,1,9.22,9.22,0,0,0,5.35-1.4,7.82,7.82,0,0,0,2.95-4,16.32,16.32,0,0,0,.77-6.08V128.7a22.1,22.1,0,0,0-.4-5.29,10.85,10.85,0,0,0-1.57-3.84,6.81,6.81,0,0,0-2.81-2.33,10.12,10.12,0,0,0-4.2-.8,7.15,7.15,0,0,0-3.77,1,8.17,8.17,0,0,0-2.72,2.79,14.36,14.36,0,0,0-1.66,4.22A23.13,23.13,0,0,0,427.14,129.74Z"/><path class="cls-3" d="M490.91,155.56a28.64,28.64,0,0,1-10.71-1.88,22.78,22.78,0,0,1-8-5.2,22.5,22.5,0,0,1-4.94-7.62,24.47,24.47,0,0,1-1.7-9.12V130a32.21,32.21,0,0,1,1.49-10,23.31,23.31,0,0,1,4.45-8,20.12,20.12,0,0,1,7.4-5.38,25.73,25.73,0,0,1,10.35-1.93,24.65,24.65,0,0,1,9.35,1.68,19.21,19.21,0,0,1,7,4.81,21.14,21.14,0,0,1,4.4,7.58,30.91,30.91,0,0,1,1.52,10v6.21H471.44v-9.57h25.19v-1.18a8.7,8.7,0,0,0-.84-4.18,6.13,6.13,0,0,0-2.56-2.63,8.58,8.58,0,0,0-4.09-.91,6.71,6.71,0,0,0-6.6,4.07,15.28,15.28,0,0,0-1.25,4.33,35.57,35.57,0,0,0-.36,5.17v1.73a15.67,15.67,0,0,0,.74,4.94,10.48,10.48,0,0,0,2.18,3.79,9.83,9.83,0,0,0,3.45,2.43,11.56,11.56,0,0,0,4.61.86,16.86,16.86,0,0,0,6.17-1.18,12.21,12.21,0,0,0,5.22-3.9l6.95,8.26a18.25,18.25,0,0,1-4.25,4.13,23.64,23.64,0,0,1-6.56,3.25A27.36,27.36,0,0,1,490.91,155.56Z"/><path class="cls-2" d="M6.36,174.47,13.92,190l7.55-15.54h6.22L16.73,195v12H11.08V195l-11-20.57Z"/><path class="cls-2" d="M27.29,195.2v-.51a15,15,0,0,1,.76-4.87,11.6,11.6,0,0,1,2.2-3.91,10,10,0,0,1,3.53-2.6,12.7,12.7,0,0,1,9.49,0,10.11,10.11,0,0,1,3.54,2.6A11.3,11.3,0,0,1,49,189.82a15,15,0,0,1,.76,4.87v.51a14.9,14.9,0,0,1-.76,4.85,11.34,11.34,0,0,1-2.21,3.9,10.17,10.17,0,0,1-3.53,2.6,11.46,11.46,0,0,1-4.72.93,11.54,11.54,0,0,1-4.75-.93,10.06,10.06,0,0,1-3.55-2.6,11.51,11.51,0,0,1-2.21-3.9A14.9,14.9,0,0,1,27.29,195.2Zm5.39-.51v.51a13.94,13.94,0,0,0,.33,3.09,8.18,8.18,0,0,0,1.05,2.54,5.25,5.25,0,0,0,1.84,1.73,5.42,5.42,0,0,0,2.66.62,5.24,5.24,0,0,0,2.6-.62A5.31,5.31,0,0,0,43,200.83a8.19,8.19,0,0,0,1.06-2.54,13.36,13.36,0,0,0,.34-3.09v-.51a13.1,13.1,0,0,0-.34-3.06A8.07,8.07,0,0,0,43,189.07a5.28,5.28,0,0,0-1.83-1.75,5.7,5.7,0,0,0-5.25,0,5.28,5.28,0,0,0-1.83,1.75A8.51,8.51,0,0,0,33,191.63,13.67,13.67,0,0,0,32.68,194.69Z"/><path class="cls-2" d="M68.7,196.3l1.81-.05a17.93,17.93,0,0,1-.53,4.48,10.26,10.26,0,0,1-1.66,3.56,7.55,7.55,0,0,1-2.86,2.35,9.56,9.56,0,0,1-4.18.84A9.93,9.93,0,0,1,58,207a6.41,6.41,0,0,1-2.53-1.59,7.09,7.09,0,0,1-1.65-2.79,13.16,13.16,0,0,1-.58-4.12V182.83h5.39v15.68a6.89,6.89,0,0,0,.31,2.2,3.86,3.86,0,0,0,.85,1.42,3,3,0,0,0,1.26.76,5,5,0,0,0,1.52.22,6.41,6.41,0,0,0,3.63-.9,4.93,4.93,0,0,0,1.9-2.45A9.93,9.93,0,0,0,68.7,196.3Zm-.76,5v-18.5h5.41V207h-5.1Z"/><path class="cls-2" d="M83.35,187.44V207H78v-24.2H83.1Zm7.4-4.76,0,5a10.13,10.13,0,0,0-1.06-.14c-.38,0-.76,0-1.13,0a7,7,0,0,0-2.43.39A4.55,4.55,0,0,0,84.32,189a4.88,4.88,0,0,0-1.08,1.75,7.52,7.52,0,0,0-.45,2.31l-1.23.08a18.71,18.71,0,0,1,.45-4.22,10.92,10.92,0,0,1,1.35-3.42,6.72,6.72,0,0,1,2.28-2.31,6.09,6.09,0,0,1,3.19-.82,6.89,6.89,0,0,1,1.06.09A4.23,4.23,0,0,1,90.75,182.68Z"/><path class="cls-2" d="M107,182.83l4.36,18.92.36,5.28h-3.44l-6.56-24.2Zm3.29,18.83,5.59-18.83h3.44l-.94,5.64L112.71,207h-3.09Zm9.61-18.83,5.53,18.61.69,5.59H123l-5.7-18.58-.94-5.62Zm4.65,18.7,4.23-18.7H134L127.47,207H124Z"/><path class="cls-2" d="M147.41,207.48a12.65,12.65,0,0,1-4.84-.89,10.47,10.47,0,0,1-3.67-2.47,11.06,11.06,0,0,1-2.31-3.73,13,13,0,0,1-.81-4.63v-.9a15.18,15.18,0,0,1,.83-5.14,12,12,0,0,1,2.3-3.95,10.08,10.08,0,0,1,3.49-2.51,10.88,10.88,0,0,1,4.36-.87,11,11,0,0,1,4.54.87,8.59,8.59,0,0,1,3.23,2.45,10.62,10.62,0,0,1,1.93,3.74,17.14,17.14,0,0,1,.63,4.79v2.3H138.4v-3.87h13.37v-.42a7.74,7.74,0,0,0-.57-2.73,4.4,4.4,0,0,0-4.46-2.84,4.67,4.67,0,0,0-4.11,2.21,8.37,8.37,0,0,0-1.07,2.59,14.54,14.54,0,0,0-.36,3.38v.9a9.54,9.54,0,0,0,.43,2.94,6.84,6.84,0,0,0,1.29,2.36,6,6,0,0,0,2.05,1.57,6.41,6.41,0,0,0,2.75.57,7.48,7.48,0,0,0,3.47-.78,8,8,0,0,0,2.64-2.21l2.84,2.75a10.59,10.59,0,0,1-2,2.18,10.24,10.24,0,0,1-3,1.69A12.34,12.34,0,0,1,147.41,207.48Z"/><path class="cls-2" d="M160.38,172.68h5.39v29.18l-.51,5.17h-4.88Zm21.18,22v.47a19.08,19.08,0,0,1-.6,4.93,11.47,11.47,0,0,1-1.79,3.9,8.23,8.23,0,0,1-2.95,2.56,9.51,9.51,0,0,1-8,.06,7.87,7.87,0,0,1-2.81-2.42,13.23,13.23,0,0,1-1.82-3.73,24.57,24.57,0,0,1-1-4.79v-1.5a24.27,24.27,0,0,1,1-4.79,13.43,13.43,0,0,1,1.82-3.74,7.73,7.73,0,0,1,2.8-2.42,8.43,8.43,0,0,1,3.9-.85,9.06,9.06,0,0,1,4.1.89,8.07,8.07,0,0,1,3,2.54,11.63,11.63,0,0,1,1.77,3.9A19.45,19.45,0,0,1,181.56,194.71Zm-5.39.47v-.47a16.74,16.74,0,0,0-.27-3.08,8.21,8.21,0,0,0-.88-2.53,4.78,4.78,0,0,0-1.66-1.74,4.88,4.88,0,0,0-2.58-.64,5.59,5.59,0,0,0-2.46.5,4.85,4.85,0,0,0-1.72,1.34,6.29,6.29,0,0,0-1.09,2,10.61,10.61,0,0,0-.52,2.41V197a9.75,9.75,0,0,0,.86,3.07,5.6,5.6,0,0,0,1.86,2.24,5.36,5.36,0,0,0,3.11.84,4.86,4.86,0,0,0,2.53-.61,4.37,4.37,0,0,0,1.64-1.69,8.3,8.3,0,0,0,.9-2.53A17.11,17.11,0,0,0,176.17,195.18Z"/><path class="cls-2" d="M198.75,200.48a2.75,2.75,0,0,0-.4-1.47,3.44,3.44,0,0,0-1.53-1.19,15.27,15.27,0,0,0-3.32-1,25.37,25.37,0,0,1-3.52-1,10.56,10.56,0,0,1-2.74-1.44,6,6,0,0,1-1.77-2,5.53,5.53,0,0,1-.63-2.68,6.29,6.29,0,0,1,.65-2.8,7,7,0,0,1,1.86-2.32,9,9,0,0,1,2.94-1.59,12.07,12.07,0,0,1,3.88-.58,12.37,12.37,0,0,1,5.22,1,7.93,7.93,0,0,1,3.34,2.76,6.78,6.78,0,0,1,1.16,3.9h-5.38a3.57,3.57,0,0,0-.48-1.8,3.69,3.69,0,0,0-1.45-1.37,5,5,0,0,0-2.41-.52,5.26,5.26,0,0,0-2.29.43,3.19,3.19,0,0,0-1.35,1.13,2.8,2.8,0,0,0-.43,1.52,2.53,2.53,0,0,0,.23,1.09,2.33,2.33,0,0,0,.8.87,6.44,6.44,0,0,0,1.53.73,20.13,20.13,0,0,0,2.45.64,23.38,23.38,0,0,1,4.77,1.49A7.88,7.88,0,0,1,203,196.6a5.8,5.8,0,0,1,1.07,3.59,6.42,6.42,0,0,1-.68,2.94,6.86,6.86,0,0,1-2,2.3,9.84,9.84,0,0,1-3.1,1.51,14,14,0,0,1-4,.54,12.06,12.06,0,0,1-5.56-1.18,8.72,8.72,0,0,1-3.46-3,7.06,7.06,0,0,1-1.17-3.83h5.21a3.94,3.94,0,0,0,.84,2.38A4.17,4.17,0,0,0,192,203.1a7.08,7.08,0,0,0,2.33.39,6.67,6.67,0,0,0,2.44-.39,3.41,3.41,0,0,0,1.5-1.07A2.51,2.51,0,0,0,198.75,200.48Z"/><path class="cls-2" d="M207.83,176.48a2.74,2.74,0,0,1,.82-2,3.52,3.52,0,0,1,4.52,0,2.71,2.71,0,0,1,.83,2,2.68,2.68,0,0,1-.83,2,3.59,3.59,0,0,1-4.52,0A2.71,2.71,0,0,1,207.83,176.48Zm5.77,6.35V207h-5.41v-24.2Z"/><path class="cls-2" d="M229.68,182.83v3.94H216v-3.94ZM220,176.91h5.39v23.43a3.55,3.55,0,0,0,.33,1.71,1.6,1.6,0,0,0,.9.8,4.3,4.3,0,0,0,1.37.2A7.4,7.4,0,0,0,229,203c.34,0,.62-.09.83-.13l0,4.11q-.67.19-1.56.36a12,12,0,0,1-2,.16,7.79,7.79,0,0,1-3.29-.66,4.75,4.75,0,0,1-2.23-2.16,8.39,8.39,0,0,1-.81-4Z"/><path class="cls-2" d="M243.59,207.48a12.61,12.61,0,0,1-4.84-.89,10.38,10.38,0,0,1-3.67-2.47,10.93,10.93,0,0,1-2.32-3.73,13.25,13.25,0,0,1-.8-4.63v-.9a14.94,14.94,0,0,1,.83-5.14,12,12,0,0,1,2.3-3.95,10,10,0,0,1,3.49-2.51,10.85,10.85,0,0,1,4.36-.87,11,11,0,0,1,4.54.87,8.75,8.75,0,0,1,3.23,2.45,10.61,10.61,0,0,1,1.92,3.74,16.77,16.77,0,0,1,.64,4.79v2.3h-18.7v-3.87H248v-.42a7.74,7.74,0,0,0-.57-2.73,4.4,4.4,0,0,0-4.46-2.84,4.91,4.91,0,0,0-2.39.57,4.84,4.84,0,0,0-1.73,1.64,8.37,8.37,0,0,0-1.06,2.59,14,14,0,0,0-.37,3.38v.9a9.54,9.54,0,0,0,.44,2.94,7,7,0,0,0,1.28,2.36,6,6,0,0,0,2.06,1.57,6.35,6.35,0,0,0,2.75.57,7.44,7.44,0,0,0,3.46-.78,7.85,7.85,0,0,0,2.64-2.21l2.84,2.75a10.81,10.81,0,0,1-2,2.18,10.36,10.36,0,0,1-3.05,1.69A12.34,12.34,0,0,1,243.59,207.48Z"/><path class="cls-2" d="M256.76,204.34a2.89,2.89,0,0,1,.85-2.11,3.52,3.52,0,0,1,4.61,0,2.92,2.92,0,0,1,.84,2.11,2.89,2.89,0,0,1-.84,2.11,3.55,3.55,0,0,1-4.61,0A2.86,2.86,0,0,1,256.76,204.34Z"/><path class="cls-2" d="M292.74,197.26V174.47h5.59v22.79a10.47,10.47,0,0,1-1.39,5.52,9.16,9.16,0,0,1-3.78,3.49,12,12,0,0,1-5.43,1.21,13.64,13.64,0,0,1-5.51-1.06,8.19,8.19,0,0,1-3.77-3.22,10.12,10.12,0,0,1-1.37-5.5h5.64a6.67,6.67,0,0,0,.61,3.1,3.7,3.7,0,0,0,1.75,1.7,6.2,6.2,0,0,0,2.65.53,5,5,0,0,0,2.58-.66,4.57,4.57,0,0,0,1.78-2A7,7,0,0,0,292.74,197.26Z"/><path class="cls-2" d="M318.65,196.3l1.81-.05a17.93,17.93,0,0,1-.53,4.48,10.26,10.26,0,0,1-1.66,3.56,7.55,7.55,0,0,1-2.86,2.35,9.56,9.56,0,0,1-4.18.84A9.83,9.83,0,0,1,308,207a6.45,6.45,0,0,1-2.54-1.59,7,7,0,0,1-1.64-2.79,12.86,12.86,0,0,1-.59-4.12V182.83h5.39v15.68a6.6,6.6,0,0,0,.32,2.2,3.61,3.61,0,0,0,.85,1.42,2.93,2.93,0,0,0,1.25.76,5,5,0,0,0,1.52.22,6.41,6.41,0,0,0,3.63-.9,4.93,4.93,0,0,0,1.9-2.45A9.93,9.93,0,0,0,318.65,196.3Zm-.76,5v-18.5h5.41V207h-5.1Z"/><path class="cls-2" d="M341.46,200.48a2.75,2.75,0,0,0-.4-1.47,3.44,3.44,0,0,0-1.53-1.19,15.27,15.27,0,0,0-3.32-1,25.52,25.52,0,0,1-3.53-1,10.89,10.89,0,0,1-2.74-1.44,6,6,0,0,1-1.76-2,5.53,5.53,0,0,1-.63-2.68,6.29,6.29,0,0,1,.65-2.8,7,7,0,0,1,1.86-2.32A9,9,0,0,1,333,183a12.07,12.07,0,0,1,3.88-.58,12.43,12.43,0,0,1,5.22,1,7.93,7.93,0,0,1,3.34,2.76,6.78,6.78,0,0,1,1.16,3.9h-5.39a3.55,3.55,0,0,0-1.92-3.17,5,5,0,0,0-2.41-.52,5.34,5.34,0,0,0-2.3.43,3.16,3.16,0,0,0-1.34,1.13,2.8,2.8,0,0,0-.43,1.52,2.53,2.53,0,0,0,.23,1.09,2.33,2.33,0,0,0,.8.87,6.44,6.44,0,0,0,1.53.73,20.13,20.13,0,0,0,2.45.64,23.59,23.59,0,0,1,4.77,1.49,7.77,7.77,0,0,1,3.07,2.33,5.74,5.74,0,0,1,1.08,3.59,6.42,6.42,0,0,1-.68,2.94,6.86,6.86,0,0,1-2,2.3,9.84,9.84,0,0,1-3.1,1.51,14.06,14.06,0,0,1-4,.54,12.06,12.06,0,0,1-5.56-1.18,8.66,8.66,0,0,1-3.46-3,7.06,7.06,0,0,1-1.17-3.83H332a3.94,3.94,0,0,0,.84,2.38,4.2,4.2,0,0,0,1.87,1.27,7.18,7.18,0,0,0,2.34.39,6.67,6.67,0,0,0,2.44-.39A3.41,3.41,0,0,0,341,202,2.51,2.51,0,0,0,341.46,200.48Z"/><path class="cls-2" d="M361.63,182.83v3.94H348v-3.94Zm-9.7-5.92h5.38v23.43a3.55,3.55,0,0,0,.33,1.71,1.63,1.63,0,0,0,.9.8,4.35,4.35,0,0,0,1.37.2A7.4,7.4,0,0,0,361,203c.34,0,.62-.09.83-.13l0,4.11c-.45.13-1,.25-1.55.36a12.2,12.2,0,0,1-2,.16,7.75,7.75,0,0,1-3.28-.66,4.77,4.77,0,0,1-2.24-2.16,8.4,8.4,0,0,1-.8-4Z"/><path class="cls-2" d="M385.22,203.18a5.3,5.3,0,0,0,2.38-.52,4.47,4.47,0,0,0,1.72-1.47,4,4,0,0,0,.73-2.17h5.08a7.58,7.58,0,0,1-1.39,4.27,9.53,9.53,0,0,1-3.55,3.06,10.68,10.68,0,0,1-4.9,1.13,11.31,11.31,0,0,1-4.83-1A9.38,9.38,0,0,1,377,203.9,11.58,11.58,0,0,1,375,200a15.89,15.89,0,0,1-.68-4.7v-.78a16,16,0,0,1,.68-4.71A11.63,11.63,0,0,1,377,186a9.49,9.49,0,0,1,3.42-2.62,11.25,11.25,0,0,1,4.81-1,10.76,10.76,0,0,1,5.09,1.15,8.76,8.76,0,0,1,3.46,3.2,9.15,9.15,0,0,1,1.31,4.75h-5.08a5.43,5.43,0,0,0-.66-2.43,4.57,4.57,0,0,0-1.65-1.73,4.82,4.82,0,0,0-2.54-.65,5.11,5.11,0,0,0-2.71.66,4.64,4.64,0,0,0-1.67,1.79,8.3,8.3,0,0,0-.86,2.53,15.16,15.16,0,0,0-.26,2.89v.78a17.32,17.32,0,0,0,.24,2.91,8.16,8.16,0,0,0,.87,2.52,4.81,4.81,0,0,0,1.68,1.76A5.16,5.16,0,0,0,385.22,203.18Z"/><path class="cls-2" d="M397.3,195.2v-.51a15,15,0,0,1,.76-4.87,11.44,11.44,0,0,1,2.2-3.91,10,10,0,0,1,3.53-2.6,12.67,12.67,0,0,1,9.48,0,10.06,10.06,0,0,1,3.55,2.6,11.46,11.46,0,0,1,2.21,3.91,15,15,0,0,1,.76,4.87v.51a14.9,14.9,0,0,1-.76,4.85,11.51,11.51,0,0,1-2.21,3.9,10.11,10.11,0,0,1-3.54,2.6,11.38,11.38,0,0,1-4.71.93,11.62,11.62,0,0,1-4.76-.93,10.11,10.11,0,0,1-3.54-2.6,11.34,11.34,0,0,1-2.21-3.9A14.9,14.9,0,0,1,397.3,195.2Zm5.39-.51v.51a13.94,13.94,0,0,0,.33,3.09,7.73,7.73,0,0,0,1.05,2.54,5.25,5.25,0,0,0,1.84,1.73,5.42,5.42,0,0,0,2.66.62,5.29,5.29,0,0,0,2.6-.62,5.19,5.19,0,0,0,1.82-1.73,8.21,8.21,0,0,0,1.07-2.54,13.36,13.36,0,0,0,.34-3.09v-.51a13.1,13.1,0,0,0-.34-3.06,8.3,8.3,0,0,0-1.08-2.56,5.28,5.28,0,0,0-1.83-1.75,5.72,5.72,0,0,0-5.26,0,5.34,5.34,0,0,0-1.82,1.75,8,8,0,0,0-1.05,2.56A13.67,13.67,0,0,0,402.69,194.69Z"/><path class="cls-2" d="M428.8,187.49v28.84h-5.39v-33.5h5Zm15.77,7.22v.47a18.42,18.42,0,0,1-.62,4.88,12.09,12.09,0,0,1-1.81,3.92,8.2,8.2,0,0,1-7,3.5,8.74,8.74,0,0,1-3.95-.84,8,8,0,0,1-2.85-2.38,12.62,12.62,0,0,1-1.87-3.64,22.12,22.12,0,0,1-1-4.59v-1.81a23.68,23.68,0,0,1,1-4.83,12.84,12.84,0,0,1,1.87-3.74,7.92,7.92,0,0,1,2.84-2.41,8.5,8.5,0,0,1,3.91-.85,8.94,8.94,0,0,1,4.05.88,8.22,8.22,0,0,1,3,2.5,11.27,11.27,0,0,1,1.81,3.89A19.36,19.36,0,0,1,444.57,194.71Zm-5.39.47v-.47a14.58,14.58,0,0,0-.32-3.12,7.87,7.87,0,0,0-1-2.54,5,5,0,0,0-1.71-1.71,4.79,4.79,0,0,0-2.49-.62,5.74,5.74,0,0,0-2.46.49,4.72,4.72,0,0,0-1.72,1.33,6.16,6.16,0,0,0-1.08,2,12.2,12.2,0,0,0-.53,2.45v4.34a10.59,10.59,0,0,0,.91,2.95,5.21,5.21,0,0,0,1.85,2.14,5.42,5.42,0,0,0,3.07.79,4.73,4.73,0,0,0,2.48-.62,5,5,0,0,0,1.69-1.74,8.21,8.21,0,0,0,1-2.56A14.48,14.48,0,0,0,439.18,195.18Z"/><path class="cls-2" d="M451.28,182.83,457,201l1,5.68-3.73,1-8.79-24.76ZM455,204.39l6.57-21.56h5.77l-9.7,27.89a20.69,20.69,0,0,1-.88,1.94,9,9,0,0,1-1.39,2,6.66,6.66,0,0,1-2.14,1.55,7.36,7.36,0,0,1-3.08.59,7.7,7.7,0,0,1-1.38-.12l-1.24-.26,0-4.12.54,0,.53,0a6.85,6.85,0,0,0,2.24-.32,3.35,3.35,0,0,0,1.46-1,6.1,6.1,0,0,0,1-1.93Z"/><path class="cls-2" d="M479.94,176.48a2.74,2.74,0,0,1,.82-2,3,3,0,0,1,2.27-.82,3.08,3.08,0,0,1,2.26.82,2.74,2.74,0,0,1,.82,2,2.71,2.71,0,0,1-.82,2,3.15,3.15,0,0,1-2.26.8,3.11,3.11,0,0,1-2.27-.8A2.71,2.71,0,0,1,479.94,176.48Zm5.77,6.35V207H480.3v-24.2Z"/><path class="cls-2" d="M501.79,182.83v3.94H488.15v-3.94Zm-9.7-5.92h5.38v23.43a3.55,3.55,0,0,0,.33,1.71,1.63,1.63,0,0,0,.9.8,4.35,4.35,0,0,0,1.37.2,7.4,7.4,0,0,0,1.07-.07c.34,0,.62-.09.83-.13l0,4.11c-.45.13-1,.25-1.55.36a12.2,12.2,0,0,1-2,.16,7.75,7.75,0,0,1-3.28-.66,4.77,4.77,0,0,1-2.24-2.16,8.4,8.4,0,0,1-.8-4Z"/><path class="cls-2" d="M505.26,204.34a2.89,2.89,0,0,1,.85-2.11,3.52,3.52,0,0,1,4.61,0,2.92,2.92,0,0,1,.84,2.11,2.89,2.89,0,0,1-.84,2.11,3.55,3.55,0,0,1-4.61,0A2.86,2.86,0,0,1,505.26,204.34Z"/></g></g></svg>