<svg xmlns="http://www.w3.org/2000/svg" viewBox="0 0 511.56 174.49"><defs><style>.cls-1{fill:#04cbd0;}.cls-2{fill:#061225;}.cls-3{fill:#0fbdcb;}</style></defs><g id="Ebene_2" data-name="Ebene 2"><g id="Ebene_1-2" data-name="Ebene 1"><path class="cls-1" d="M156.39,28C156.23,12,143.72.11,127.64,0,111.19,0,94.74,0,78.29,0S45.39,0,29,0C12.86.11.35,12,.19,28-.15,60.65.06,93.3.13,126c0,15.34,14.51,28.79,29.17,28.35,16.32-.49,32.66-.12,49-.12s32.68-.37,49,.12c14.67.44,29.15-13,29.18-28.35C156.52,93.3,156.73,60.65,156.39,28Zm-9.77,97.74c-.06,10.1-6.31,17-16.28,18.77a56.15,56.15,0,0,1-9.89.45q-21.08,0-42.16,0l-42.16,0a56.15,56.15,0,0,1-9.89-.45c-10-1.79-16.22-8.67-16.27-18.77q-.27-49,.06-97.91c.07-10.61,7.87-18.07,19-18,16.41.09,32.82,0,49.22,0v0h.14v0c16.4,0,32.81.07,49.22,0,11.11-.06,18.9,7.4,19,18Q146.88,76.78,146.62,125.74Z"/><path class="cls-1" d="M120.48,61.56,86.3,27.3H45.08a10,10,0,0,0-6.22,2.38,9.89,9.89,0,0,0-2.76,4V86h9V36.28H78.89V64.71a8.21,8.21,0,0,0,1.8,2.72,8,8,0,0,0,2.7,1.77h28.09V86h9V69.2Zm-32.6-1.34V41l19.17,19.18Z"/><path class="cls-2" d="M45.62,118.53h8.84a13.4,13.4,0,0,1-2.07,6.77,12.75,12.75,0,0,1-5.24,4.56,17.92,17.92,0,0,1-7.89,1.63,16.67,16.67,0,0,1-6.58-1.24,13.22,13.22,0,0,1-4.9-3.56,15.66,15.66,0,0,1-3.05-5.63,24.6,24.6,0,0,1-1.05-7.45v-2a23.44,23.44,0,0,1,1.1-7.46,16.16,16.16,0,0,1,3.13-5.66,13.39,13.39,0,0,1,4.88-3.57,15.73,15.73,0,0,1,6.34-1.24,17.4,17.4,0,0,1,8.11,1.72,12.65,12.65,0,0,1,5.13,4.71,15.47,15.47,0,0,1,2.14,6.8H45.67a8.76,8.76,0,0,0-.7-3.47,4.42,4.42,0,0,0-2.07-2.11,8.54,8.54,0,0,0-3.77-.7,6.37,6.37,0,0,0-2.85.6,5.08,5.08,0,0,0-2,1.92,10,10,0,0,0-1.2,3.4,27.69,27.69,0,0,0-.39,5v2a30.94,30.94,0,0,0,.35,5A9.92,9.92,0,0,0,34.16,122a4.82,4.82,0,0,0,2,1.93,6.78,6.78,0,0,0,3.07.62,8.08,8.08,0,0,0,3.41-.64,4.77,4.77,0,0,0,2.15-2A7.2,7.2,0,0,0,45.62,118.53Z"/><path class="cls-2" d="M58.66,94.21h7.47l1.39,28.19V131H58.66Zm4.39,0h7.22l8.21,25.58,8.21-25.58h7.22L81.41,131H75.55Zm27.78,0h7.5V131H89.44V122.4Z"/><path class="cls-2" d="M118.66,118.51h-9.14v-6.85h9.14a6.32,6.32,0,0,0,3-.63,3.93,3.93,0,0,0,1.71-1.76,5.73,5.73,0,0,0,.54-2.53,7.22,7.22,0,0,0-.54-2.81,4.75,4.75,0,0,0-1.71-2.08,5.24,5.24,0,0,0-3-.8h-5.81V131H104V94.21h14.67a16.67,16.67,0,0,1,7.62,1.62,12,12,0,0,1,4.91,4.43,12.15,12.15,0,0,1,1.71,6.43,11.21,11.21,0,0,1-1.71,6.21,11.46,11.46,0,0,1-4.91,4.13A18.11,18.11,0,0,1,118.66,118.51Z"/><path class="cls-3" d="M212.88,44.66h15.88A24,24,0,0,1,225,56.82a22.92,22.92,0,0,1-9.42,8.2,32.11,32.11,0,0,1-14.18,2.92,29.89,29.89,0,0,1-11.83-2.22,24,24,0,0,1-8.8-6.4,28.19,28.19,0,0,1-5.49-10.12,44.11,44.11,0,0,1-1.89-13.39V32.22a42.47,42.47,0,0,1,2-13.41A29.16,29.16,0,0,1,181,8.65a24.35,24.35,0,0,1,8.78-6.43A28.4,28.4,0,0,1,201.21,0a31.3,31.3,0,0,1,14.57,3.09A22.73,22.73,0,0,1,225,11.55a27.75,27.75,0,0,1,3.86,12.23H213a15.7,15.7,0,0,0-1.27-6.24A7.89,7.89,0,0,0,208,13.75a15.28,15.28,0,0,0-6.76-1.27,11.28,11.28,0,0,0-5.13,1.09A9.06,9.06,0,0,0,192.45,17a17.76,17.76,0,0,0-2.15,6.1,49.48,49.48,0,0,0-.71,9v3.68a53.66,53.66,0,0,0,.64,9,17.55,17.55,0,0,0,2,6.08,8.8,8.8,0,0,0,3.65,3.47,12.4,12.4,0,0,0,5.52,1.11,14.58,14.58,0,0,0,6.13-1.15,8.47,8.47,0,0,0,3.85-3.54A13,13,0,0,0,212.88,44.66Z"/><path class="cls-3" d="M233.66,43V42a30.86,30.86,0,0,1,1.55-10,22.53,22.53,0,0,1,4.53-7.92,20.76,20.76,0,0,1,7.4-5.25,28.61,28.61,0,0,1,20.4,0A20.58,20.58,0,0,1,275,24.15a22.55,22.55,0,0,1,4.54,7.92,30.86,30.86,0,0,1,1.55,10V43a30.75,30.75,0,0,1-1.55,9.92A22.82,22.82,0,0,1,275,60.84a20.26,20.26,0,0,1-7.39,5.24,26,26,0,0,1-10.17,1.86,26.26,26.26,0,0,1-10.21-1.86,20.23,20.23,0,0,1-7.45-5.24,22.8,22.8,0,0,1-4.53-7.94A30.75,30.75,0,0,1,233.66,43ZM249,42V43a30,30,0,0,0,.41,5.17,13.55,13.55,0,0,0,1.36,4.2,7,7,0,0,0,2.58,2.79,7.7,7.7,0,0,0,4.09,1,7.49,7.49,0,0,0,4-1A7.13,7.13,0,0,0,264,52.35a13.55,13.55,0,0,0,1.36-4.2,31.05,31.05,0,0,0,.41-5.17V42a30.06,30.06,0,0,0-.41-5.06A14.14,14.14,0,0,0,264,32.75a7.41,7.41,0,0,0-2.59-2.89,7.49,7.49,0,0,0-4.08-1,7.3,7.3,0,0,0-4,1,7.42,7.42,0,0,0-2.56,2.89A14.14,14.14,0,0,0,249.37,37,29.05,29.05,0,0,0,249,42Z"/><path class="cls-3" d="M303.24,27.37V85.92h-15.3v-68H302.2Zm30.14,14.52v1a38.17,38.17,0,0,1-1.23,9.94,24.92,24.92,0,0,1-3.63,8,16.89,16.89,0,0,1-6,5.29,17.42,17.42,0,0,1-8.24,1.88,14.23,14.23,0,0,1-7.58-2,16.33,16.33,0,0,1-5.31-5.4,32.57,32.57,0,0,1-3.45-7.9,72.6,72.6,0,0,1-2.08-9.39V42.07A74.49,74.49,0,0,1,298,32.2a31.39,31.39,0,0,1,3.45-8,16.08,16.08,0,0,1,5.29-5.31A14.34,14.34,0,0,1,314.27,17a18.33,18.33,0,0,1,8.24,1.77,16.56,16.56,0,0,1,6,5.06,23.24,23.24,0,0,1,3.65,7.87A39.26,39.26,0,0,1,333.38,41.89Zm-15.3,1v-1a31.39,31.39,0,0,0-.41-5.24,14.78,14.78,0,0,0-1.29-4.15A6.85,6.85,0,0,0,314,29.77a6.43,6.43,0,0,0-3.58-.95,9.93,9.93,0,0,0-4.11.75,5.93,5.93,0,0,0-2.63,2.27,9.94,9.94,0,0,0-1.37,3.77,29.33,29.33,0,0,0-.34,5.24v3.72a19.76,19.76,0,0,0,.68,6.06,7.7,7.7,0,0,0,2.68,4.06,8.34,8.34,0,0,0,5.18,1.45,6.17,6.17,0,0,0,3.63-1,7.05,7.05,0,0,0,2.31-2.86A15.41,15.41,0,0,0,317.72,48,35,35,0,0,0,318.08,42.84Z"/><path class="cls-3" d="M351.48,17.93l9.67,34.35,1.68,16.21H352.57L335.1,17.93Zm3.23,43.34,12.71-43.34h16.42L364.1,74.34a34.86,34.86,0,0,1-1.68,4,16.76,16.76,0,0,1-2.86,4.11,13.53,13.53,0,0,1-4.65,3.17,17.64,17.64,0,0,1-7,1.23,17.91,17.91,0,0,1-3.25-.21c-.68-.13-1.71-.37-3.1-.7V75h2a12.4,12.4,0,0,0,3.93-.5,4.88,4.88,0,0,0,2.27-1.45A7.19,7.19,0,0,0,351,70.76Z"/><path class="cls-3" d="M175.27,88.58H188.7l2.5,50.65v15.43H175.27Zm7.89,0h13l14.75,46,14.75-46h13l-22.46,66.08H205.63Zm49.93,0h13.48v66.08h-16V139.23Z"/><path class="cls-3" d="M267.88,105.55l9.67,34.36,1.68,16.2H269L251.5,105.55Zm3.23,43.34,12.7-43.34h16.43L280.5,162a34.86,34.86,0,0,1-1.68,4,16.57,16.57,0,0,1-2.86,4.11,13.69,13.69,0,0,1-4.65,3.18,17.83,17.83,0,0,1-7,1.22,19.05,19.05,0,0,1-3.25-.2c-.68-.14-1.71-.37-3.11-.71V162.65h2a12.74,12.74,0,0,0,3.93-.5,5,5,0,0,0,2.27-1.46,6.89,6.89,0,0,0,1.24-2.31Z"/><path class="cls-3" d="M331.29,132.24H314.86v-12.3h16.43a11.3,11.3,0,0,0,5.44-1.14,7,7,0,0,0,3.07-3.15,10.38,10.38,0,0,0,1-4.56,12.83,12.83,0,0,0-1-5,8.44,8.44,0,0,0-3.07-3.75,9.45,9.45,0,0,0-5.44-1.43H320.85v53.79H304.92V88.58h26.37A30,30,0,0,1,345,91.48a21.33,21.33,0,0,1,8.83,8A21.7,21.7,0,0,1,356.89,111a20.07,20.07,0,0,1-3.09,11.16,20.39,20.39,0,0,1-8.83,7.42A32.38,32.38,0,0,1,331.29,132.24Z"/><path class="cls-3" d="M391.61,124.66l.09,8.17h-6.77a9.55,9.55,0,0,0-3.6.59A5.93,5.93,0,0,0,379,135a6.09,6.09,0,0,0-1.27,2.29,9.1,9.1,0,0,0-.39,2.68,4.48,4.48,0,0,0,.66,2.42,4.41,4.41,0,0,0,1.79,1.66,5.34,5.34,0,0,0,2.54.59,9,9,0,0,0,4.34-1,7.6,7.6,0,0,0,2.74-2.39,4.71,4.71,0,0,0,1-2.63l3.35,6.26c-.6,1.22-1.29,2.44-2.06,3.68a16.77,16.77,0,0,1-2.86,3.43,13.51,13.51,0,0,1-4.15,2.54,16.16,16.16,0,0,1-5.95,1,18.65,18.65,0,0,1-8.33-1.86,15.47,15.47,0,0,1-6.06-5.19,13.39,13.39,0,0,1-2.27-7.7,16,16,0,0,1,1.39-6.8,13.14,13.14,0,0,1,4.2-5.09,19.94,19.94,0,0,1,7.17-3.17A42.38,42.38,0,0,1,385,124.66Zm-1.86,17.65V122.07a9.89,9.89,0,0,0-.59-3.59,4.91,4.91,0,0,0-1.87-2.33,6.07,6.07,0,0,0-3.4-.84,6.81,6.81,0,0,0-2.95.59,4,4,0,0,0-1.86,1.77,6.31,6.31,0,0,0-.64,3H363.15a13.56,13.56,0,0,1,1.52-6.33,15.17,15.17,0,0,1,4.36-5.1,21.14,21.14,0,0,1,6.8-3.39,30.67,30.67,0,0,1,8.88-1.2,26.61,26.61,0,0,1,10.46,2,16.41,16.41,0,0,1,7.28,5.84,16.69,16.69,0,0,1,2.68,9.73v20.11a35.79,35.79,0,0,0,.55,7.28,16.51,16.51,0,0,0,1.54,4.34v.77H391.88a19.92,19.92,0,0,1-1.61-5.56A43.13,43.13,0,0,1,389.75,142.31Z"/><path class="cls-3" d="M411.85,130.69v-.95a35.42,35.42,0,0,1,1.38-10.19,23.82,23.82,0,0,1,4-7.94,17.88,17.88,0,0,1,6.33-5.15,18.9,18.9,0,0,1,8.39-1.82,16,16,0,0,1,8.29,1.93,14.58,14.58,0,0,1,5.22,5.38,30.76,30.76,0,0,1,3.08,8c.74,3.08,1.37,6.38,1.89,9.92v1.14a69.84,69.84,0,0,1-2.11,9.41,32.28,32.28,0,0,1-3.48,7.83,16.1,16.1,0,0,1-5.33,5.34,14.58,14.58,0,0,1-7.65,1.92,17.9,17.9,0,0,1-14.63-7.08,24.15,24.15,0,0,1-4-7.89A33.94,33.94,0,0,1,411.85,130.69Zm32.63-25.14h13.89v47.2a20.47,20.47,0,0,1-3.13,11.55,19.75,19.75,0,0,1-8.74,7.22A32.18,32.18,0,0,1,433.41,174a28.58,28.58,0,0,1-6.77-.84,26.44,26.44,0,0,1-6.44-2.47,17.57,17.57,0,0,1-5-4l6.4-9a16.26,16.26,0,0,0,4.68,3.56,14,14,0,0,0,6.62,1.48,11.82,11.82,0,0,0,5.56-1.18,8,8,0,0,0,3.43-3.43,11.57,11.57,0,0,0,1.18-5.42V117.17Zm-17.34,24.19v.95a23.56,23.56,0,0,0,.53,5.13,13.16,13.16,0,0,0,1.61,4.15,8.16,8.16,0,0,0,2.7,2.8,7.07,7.07,0,0,0,3.79,1,9.22,9.22,0,0,0,5.35-1.4,7.82,7.82,0,0,0,2.95-4,16.32,16.32,0,0,0,.77-6.08V128.7a22.1,22.1,0,0,0-.4-5.29,10.85,10.85,0,0,0-1.57-3.84,6.81,6.81,0,0,0-2.81-2.33,10.12,10.12,0,0,0-4.2-.8,7.15,7.15,0,0,0-3.77,1,8.17,8.17,0,0,0-2.72,2.79,14.36,14.36,0,0,0-1.66,4.22A23.13,23.13,0,0,0,427.14,129.74Z"/><path class="cls-3" d="M490.91,155.56a28.64,28.64,0,0,1-10.71-1.88,22.78,22.78,0,0,1-8-5.2,22.5,22.5,0,0,1-4.94-7.62,24.47,24.47,0,0,1-1.7-9.12V130a32.21,32.21,0,0,1,1.49-10,23.31,23.31,0,0,1,4.45-8,20.12,20.12,0,0,1,7.4-5.38,25.73,25.73,0,0,1,10.35-1.93,24.65,24.65,0,0,1,9.35,1.68,19.21,19.21,0,0,1,7,4.81,21.14,21.14,0,0,1,4.4,7.58,30.91,30.91,0,0,1,1.52,10v6.21H471.44v-9.57h25.19v-1.18a8.7,8.7,0,0,0-.84-4.18,6.13,6.13,0,0,0-2.56-2.63,8.58,8.58,0,0,0-4.09-.91,6.71,6.71,0,0,0-6.6,4.07,15.28,15.28,0,0,0-1.25,4.33,35.57,35.57,0,0,0-.36,5.17v1.73a15.67,15.67,0,0,0,.74,4.94,10.48,10.48,0,0,0,2.18,3.79,9.83,9.83,0,0,0,3.45,2.43,11.56,11.56,0,0,0,4.61.86,16.86,16.86,0,0,0,6.17-1.18,12.21,12.21,0,0,0,5.22-3.9l6.95,8.26a18.25,18.25,0,0,1-4.25,4.13,23.64,23.64,0,0,1-6.56,3.25A27.36,27.36,0,0,1,490.91,155.56Z"/></g></g></svg>