<svg xmlns="http://www.w3.org/2000/svg" viewBox="0 0 220.86 217.65"><defs><style>.cls-1{fill:#04cbd0;}.cls-2{fill:#061225;}</style></defs><g id="Ebene_2" data-name="Ebene 2"><g id="Ebene_1-2" data-name="Ebene 1"><path class="cls-1" d="M220.59,39.49C220.36,16.88,202.72.15,180,.06c-23.2-.1-46.4,0-69.6,0S64,0,40.83.06C18.14.15.5,16.88.26,39.49-.21,85.54.09,131.6.18,177.66c0,21.64,20.46,40.59,41.15,40,23-.69,46.06-.16,69.1-.16s46.09-.53,69.1.16c20.68.62,41.11-18.33,41.15-40C220.77,131.6,221.07,85.54,220.59,39.49ZM206.8,177.36c-.08,14.25-8.89,23.94-23,26.47-4.55.82-9.3.64-14,.64q-29.73,0-59.46,0t-59.47,0c-4.65,0-9.41.18-14-.64C23,201.3,14.14,191.61,14.06,177.36q-.39-69.06.09-138.11c.1-15,11.09-25.49,26.76-25.4,23.14.12,46.28,0,69.42,0v0h.19v0c23.15,0,46.29.09,69.43,0,15.67-.09,26.66,10.44,26.76,25.4Q207.16,108.31,206.8,177.36Z"/><path class="cls-1" d="M169.93,86.83l-48.2-48.32H63.59a14.06,14.06,0,0,0-8.78,3.36,13.77,13.77,0,0,0-3.89,5.7v73.76H63.59V51.18h47.69v40.1a11.44,11.44,0,0,0,6.33,6.33h39.63v23.72h12.67V97.61Zm-46-1.89v-27L151,84.94Z"/><path class="cls-2" d="M64.35,167.19H76.82a18.85,18.85,0,0,1-2.92,9.54,18,18,0,0,1-7.39,6.44,25.22,25.22,0,0,1-11.13,2.29,23.41,23.41,0,0,1-9.28-1.74,18.82,18.82,0,0,1-6.92-5,22.4,22.4,0,0,1-4.31-7.94,34.89,34.89,0,0,1-1.47-10.51v-2.81A33.2,33.2,0,0,1,35,146.9a23,23,0,0,1,4.41-8,19.2,19.2,0,0,1,6.9-5,22.28,22.28,0,0,1,8.94-1.74,24.52,24.52,0,0,1,11.43,2.42,17.88,17.88,0,0,1,7.23,6.64,21.88,21.88,0,0,1,3,9.6H64.42a12.28,12.28,0,0,0-1-4.9,6.21,6.21,0,0,0-2.93-3,12,12,0,0,0-5.3-1,8.9,8.9,0,0,0-4,.86,7.07,7.07,0,0,0-2.85,2.7,14.26,14.26,0,0,0-1.69,4.79,38.92,38.92,0,0,0-.55,7.08v2.88a41.7,41.7,0,0,0,.5,7,13.82,13.82,0,0,0,1.6,4.78,6.87,6.87,0,0,0,2.87,2.72,9.57,9.57,0,0,0,4.33.88,11.45,11.45,0,0,0,4.8-.91,6.59,6.59,0,0,0,3-2.78A10.14,10.14,0,0,0,64.35,167.19Z"/><path class="cls-2" d="M82.73,132.88H93.28l2,39.76v12.11H82.73Zm6.2,0H99.12L110.7,169l11.57-36.09h10.19l-17.63,51.87h-8.27Zm39.19,0H138.7v51.87H126.16V172.64Z"/><path class="cls-2" d="M167.37,167.15H154.48V157.5h12.89a9,9,0,0,0,4.28-.89,5.48,5.48,0,0,0,2.4-2.48,8.11,8.11,0,0,0,.77-3.58,10.08,10.08,0,0,0-.77-4,6.63,6.63,0,0,0-2.4-2.94,7.44,7.44,0,0,0-4.28-1.12h-8.19v42.21H146.67V132.88h20.7a23.51,23.51,0,0,1,10.74,2.28,16.81,16.81,0,0,1,6.93,6.26,17.08,17.08,0,0,1,2.42,9.06,15.78,15.78,0,0,1-2.42,8.76,16,16,0,0,1-6.93,5.83A25.37,25.37,0,0,1,167.37,167.15Z"/></g></g></svg>